<svg xmlns="http://www.w3.org/2000/svg" width="800" height="450" viewBox="0 0 800 450"><defs><pattern id="grid" width="32" height="32" patternUnits="userSpaceOnUse"><path d="M32 0H0V32" fill="none" stroke="#33583c" stroke-opacity=".08"/></pattern><linearGradient id="chip" x1="0" y1="0" x2="1" y2="1"><stop stop-color="#416f51"/><stop offset="1" stop-color="#1d4232"/></linearGradient></defs><rect width="800" height="450" fill="#dce8cc"/><rect width="800" height="450" fill="url(#grid)"/><g fill="none" stroke="#8ca676" stroke-width="1.5"><path d="M0 115h145l55 55h75M0 325h170l55-55h55M800 115H650l-55 55h-75M800 325H630l-55-55h-55M400 0v105m0 345V345M80 225h190m265 0h185"/><circle cx="145" cy="115" r="4" fill="#8ca676"/><circle cx="650" cy="115" r="4" fill="#8ca676"/><circle cx="170" cy="325" r="4" fill="#8ca676"/><circle cx="630" cy="325" r="4" fill="#8ca676"/></g><circle cx="400" cy="225" r="186" fill="none" stroke="#7f9c69" stroke-opacity=".2"/><circle cx="400" cy="225" r="150" fill="none" stroke="#7f9c69" stroke-opacity=".25"/><path d="M290 110v40M290 310v40" stroke="#6c8a58" stroke-width="5" stroke-linecap="round"/><path d="M316 110v40M316 310v40" stroke="#6c8a58" stroke-width="5" stroke-linecap="round"/><path d="M342 110v40M342 310v40" stroke="#6c8a58" stroke-width="5" stroke-linecap="round"/><path d="M368 110v40M368 310v40" stroke="#6c8a58" stroke-width="5" stroke-linecap="round"/><path d="M394 110v40M394 310v40" stroke="#6c8a58" stroke-width="5" stroke-linecap="round"/><path d="M420 110v40M420 310v40" stroke="#6c8a58" stroke-width="5" stroke-linecap="round"/><path d="M446 110v40M446 310v40" stroke="#6c8a58" stroke-width="5" stroke-linecap="round"/><path d="M472 110v40M472 310v40" stroke="#6c8a58" stroke-width="5" stroke-linecap="round"/><path d="M498 110v40M498 310v40" stroke="#6c8a58" stroke-width="5" stroke-linecap="round"/><path d="M250 169h40M510 169h40" stroke="#6c8a58" stroke-width="5" stroke-linecap="round"/><path d="M250 195h40M510 195h40" stroke="#6c8a58" stroke-width="5" stroke-linecap="round"/><path d="M250 221h40M510 221h40" stroke="#6c8a58" stroke-width="5" stroke-linecap="round"/><path d="M250 247h40M510 247h40" stroke="#6c8a58" stroke-width="5" stroke-linecap="round"/><path d="M250 273h40M510 273h40" stroke="#6c8a58" stroke-width="5" stroke-linecap="round"/><path d="M250 299h40M510 299h40" stroke="#6c8a58" stroke-width="5" stroke-linecap="round"/><rect x="280" y="151" width="240" height="167" rx="20" fill="#52734b" opacity=".18"/><rect x="280" y="139" width="240" height="167" rx="20" fill="#eff5e6" stroke="#89a273"/><rect x="294" y="153" width="212" height="139" rx="12" fill="url(#chip)"/><rect x="306" y="165" width="188" height="115" rx="6" fill="none" stroke="#b5cea2" stroke-opacity=".35"/><text x="400" y="247" text-anchor="middle" font-family="Georgia,serif" font-size="65" fill="#dcecc6">AI</text><text x="65" y="390" font-family="monospace" font-size="10" letter-spacing="3" fill="#4f7048">INTELLIGENCE, IN FOCUS</text></svg>